<svg xmlns="http://www.w3.org/2000/svg" viewBox="0 0 130.13 23.01"><defs><style>.cls-1{fill:#004471;}</style></defs><g id="レイヤー_2" data-name="レイヤー 2"><g id="レイヤー_7" data-name="レイヤー 7"><polygon class="cls-1" points="74.42 4.21 74.42 23.01 83.5 23.01 83.5 20.09 77.45 20.09 77.45 15.07 82.74 15.07 82.74 12.15 77.45 12.15 77.45 7.13 83.5 7.13 83.5 4.21 74.42 4.21"/><polygon class="cls-1" points="63.28 7.13 66.31 7.13 66.31 23.01 69.34 23.01 69.34 7.13 72.36 7.13 72.36 4.21 63.28 4.21 63.28 7.13"/><polygon class="cls-1" points="86.1 0 86.1 23.01 89.13 23.01 89.13 12.08 94.69 12.08 94.69 9.16 89.13 9.16 89.13 2.92 95.44 2.92 95.44 0 86.1 0"/><path class="cls-1" d="M126.42,4.21h-5.37V23h5.37a3.54,3.54,0,0,0,3.71-3.71V7.91A3.54,3.54,0,0,0,126.42,4.21Zm.68,15.2a.68.68,0,0,1-.68.68h-2.35v-13h2.35a.67.67,0,0,1,.68.68Z"/><path class="cls-1" d="M23.53,4.21H21.86a3.54,3.54,0,0,0-3.7,3.7V19.3A3.54,3.54,0,0,0,21.86,23h1.67a3.54,3.54,0,0,0,3.71-3.71V16h-3v3.41a.68.68,0,0,1-.68.68H21.86a.69.69,0,0,1-.68-.68V7.81a.68.68,0,0,1,.68-.68h1.67a.67.67,0,0,1,.68.68v3.41h3V7.91A3.54,3.54,0,0,0,23.53,4.21Z"/><path class="cls-1" d="M36.32,19.41a.69.69,0,0,1-.68.68H34a.68.68,0,0,1-.68-.68V4.21h-3V19.3A3.54,3.54,0,0,0,34,23h1.67a3.54,3.54,0,0,0,3.7-3.71V4.21h-3Z"/><path class="cls-1" d="M102.89,19.41a.68.68,0,0,1-.68.68h-1.66a.68.68,0,0,1-.68-.68V4.21h-3V19.3A3.54,3.54,0,0,0,100.55,23h1.66a3.54,3.54,0,0,0,3.71-3.71V4.21h-3Z"/><polygon class="cls-1" points="12.11 13.99 9.08 10.33 9.08 4.21 6.05 4.21 6.05 23.01 9.08 23.01 9.08 14.29 12.11 17.96 12.11 23.01 15.13 23.01 15.13 4.21 12.11 4.21 12.11 13.99"/><polygon class="cls-1" points="115 13.99 111.97 10.33 111.97 4.21 108.94 4.21 108.94 23.01 111.97 23.01 111.97 14.29 115 17.96 115 23.01 118.02 23.01 118.02 4.21 115 4.21 115 13.99"/><rect class="cls-1" width="3.03" height="23.01"/><path class="cls-1" d="M56.72,4.21,52.88,23h3l.59-2.92h3.4l.6,2.92h3L59.7,4.21Zm2.61,13H57.1l1.11-6.64Z"/><path class="cls-1" d="M51.45,11.41V7.91a3.54,3.54,0,0,0-3.71-3.7H42.37V23h5.37a3.54,3.54,0,0,0,3.71-3.71V15.8a2.93,2.93,0,0,0-.93-2.19h0A3,3,0,0,0,51.45,11.41Zm-3,8a.68.68,0,0,1-.68.68H45.39v-5h2.35a.67.67,0,0,1,.68.68Zm0-7.94a.68.68,0,0,1-.68.68H45.39v-5h2.35a.67.67,0,0,1,.68.68Z"/></g></g></svg>