<svg xmlns="http://www.w3.org/2000/svg" viewBox="0 0 102.23 24.39"><defs><style>.cls-1{fill:#fff;}</style></defs><g id="レイヤー_2" data-name="レイヤー 2"><g id="レイヤー_1-2" data-name="レイヤー 1"><path class="cls-1" d="M10.13,1.42V16a15.06,15.06,0,0,1-.37,3.9,5.71,5.71,0,0,1-1.24,2.47,5.64,5.64,0,0,1-4.53,2,7.65,7.65,0,0,1-4-1.11l1.67-2.9A4.24,4.24,0,0,0,4,21.21a2.15,2.15,0,0,0,2.1-1.16,9.3,9.3,0,0,0,.62-4V1.42Z"/><path class="cls-1" d="M29.28,18.5H19.61L17.1,24H13.43L24.6,0,35.37,24H31.64Zm-1.39-3.2L24.54,7.63,21,15.3Z"/><polygon class="cls-1" points="51.26 4.62 43.39 4.62 43.39 12.45 50.98 12.45 50.98 15.65 43.39 15.65 43.39 23.98 39.99 23.98 39.99 1.42 51.26 1.42 51.26 4.62"/><path class="cls-1" d="M73.68,2.63v4a9.45,9.45,0,0,0-6.11-2.48,7.79,7.79,0,0,0-5.86,2.5,8.44,8.44,0,0,0-2.4,6.08,8.24,8.24,0,0,0,2.4,6,7.92,7.92,0,0,0,5.87,2.44,7.23,7.23,0,0,0,3.06-.59,8.08,8.08,0,0,0,1.45-.79,19.27,19.27,0,0,0,1.59-1.19v4.1a12.33,12.33,0,0,1-6.14,1.65A11.32,11.32,0,0,1,59.28,21a11.21,11.21,0,0,1-3.41-8.22,11.57,11.57,0,0,1,2.85-7.68A11.36,11.36,0,0,1,67.8,1a11.54,11.54,0,0,1,5.88,1.65"/><path class="cls-1" d="M78.64,12.6a11.06,11.06,0,0,1,3.5-8.19A11.49,11.49,0,0,1,90.5,1a11.29,11.29,0,0,1,8.27,3.45,11.29,11.29,0,0,1,3.46,8.29A11.12,11.12,0,0,1,98.76,21a11.95,11.95,0,0,1-16.29.38,11.1,11.1,0,0,1-3.83-8.77m3.44,0a8.18,8.18,0,0,0,2.51,6.16,8.33,8.33,0,0,0,11.77-.05A8.28,8.28,0,0,0,98.8,12.7a8.26,8.26,0,0,0-2.41-6,8.44,8.44,0,0,0-11.89,0,8.18,8.18,0,0,0-2.42,6"/></g></g></svg>