<svg height="40" viewBox="0 0 116.663 40" width="116.663" xmlns="http://www.w3.org/2000/svg" xmlns:xlink="http://www.w3.org/1999/xlink"><linearGradient id="a" gradientUnits="objectBoundingBox" x1=".068" x2=".932" y1=".25" y2=".75"><stop offset="0" stop-color="#20d679"/><stop offset=".155" stop-color="#22d37f"/><stop offset=".377" stop-color="#28cb92"/><stop offset=".64" stop-color="#31bfb1"/><stop offset=".932" stop-color="#3faedc"/><stop offset="1" stop-color="#43aae8"/></linearGradient><g transform="translate(538.467 -935.957)"><g fill="#fff"><path d="m-370.676 967.947-5.83 12.939h2.723l.983-2.167h6.657l.962 2.167h2.724l-5.831-12.939zm1.7 4.386 1.866 4.2h-4.7l1.311-2.889c.331-.711.676-1.55 1.028-2.5.115.312.281.71.494 1.189z" transform="translate(-115.811 -22.863)"/><path d="m-301.77 973.493a2.823 2.823 0 0 0 .621-.723 2.732 2.732 0 0 0 .417-1.45 3.007 3.007 0 0 0 -1.123-2.529 4.534 4.534 0 0 0 -2.831-.844h-6.044v12.939h6.218a5.685 5.685 0 0 0 3.587-1.058 3.667 3.667 0 0 0 1.373-3.051 3.476 3.476 0 0 0 -.749-2.215 3.26 3.26 0 0 0 -1.469-1.069zm-6.314-.806v-2.4h3.185a1.534 1.534 0 0 1 1.073.333 1.157 1.157 0 0 1 .352.9 1.084 1.084 0 0 1 -.341.857 1.424 1.424 0 0 1 -.988.316zm5.79 4.129a1.462 1.462 0 0 1 -.6 1.278 3 3 0 0 1 -1.769.456h-3.417v-3.55h3.63a2.452 2.452 0 0 1 1.6.476 1.627 1.627 0 0 1 .556 1.34z" transform="translate(-162.671 -22.863)"/><path d="m-456.491 945.083h2.646v12.939h-2.646z"/><path d="m-218.334 975.255h7.062v-2.317h-7.062v-2.656h7.488v-2.336h-10.134v12.939h10.4v-2.335h-7.759z" transform="translate(-226.61 -22.863)"/><path d="m-157.8 974.948a3.218 3.218 0 0 0 -1.166-1.182 7.252 7.252 0 0 0 -1.511-.7l-1.756-.567a8.39 8.39 0 0 1 -1.952-.657.916.916 0 0 1 -.525-.851.928.928 0 0 1 .338-.73 1.981 1.981 0 0 1 .808-.44 3.669 3.669 0 0 1 .917-.119 6.384 6.384 0 0 1 3.472 1.014l.187.118 1.05-2.076-.146-.1a7.973 7.973 0 0 0 -4.563-1.389 5.664 5.664 0 0 0 -3.327.975 3.209 3.209 0 0 0 -1.42 2.767 3.147 3.147 0 0 0 .3 1.383 3.245 3.245 0 0 0 .733 1.01 4.645 4.645 0 0 0 1.133.719 8.223 8.223 0 0 0 1.268.488l2.658.745a2.067 2.067 0 0 1 .8.463.979.979 0 0 1 .359.766 1.263 1.263 0 0 1 -.715 1.122 3.458 3.458 0 0 1 -1.793.455 6.265 6.265 0 0 1 -4.034-1.426l-.192-.156-1.052 2.057.111.1a7.289 7.289 0 0 0 5.148 1.853 6.582 6.582 0 0 0 3.67-1.01 3.38 3.38 0 0 0 1.6-2.993 3.312 3.312 0 0 0 -.4-1.639z" transform="translate(-264.408 -22.384)"/><path d="m-374.318 1030.855-2.188-5.3h.964l1.265 3.022.417 1.184q.262-.8.417-1.184l1.265-3.022h.972l-2.188 5.3z" transform="translate(-115.811 -63.905)"/><path d="m-341.551 1030.847v-5.292h4.108v.817h-3.16v1.29h2.98v.808h-2.98v1.559h3.275v.817z" transform="translate(-140.714 -63.905)"/><path d="m-309.72 1030.847v-5.292h1.009l1.858 2.6.38.531a3.557 3.557 0 0 1 .313.508l.106.208v-3.847h.947v5.292h-.98l-1.777-2.487-.435-.608q-.235-.329-.359-.524l-.116-.2v3.814z" transform="translate(-163.391 -63.905)"/><path d="m-275.006 1030.847v-4.475h-1.862v-.817h4.671v.817h-1.862v4.475z" transform="translate(-186.795 -63.905)"/><path d="m-240.272 1030.332a2.263 2.263 0 0 1 -1.588.6 2.263 2.263 0 0 1 -1.588-.6 2.008 2.008 0 0 1 -.649-1.552v-3.226h.947v3.193a1.281 1.281 0 0 0 .375.952 1.253 1.253 0 0 0 .915.372 1.252 1.252 0 0 0 .915-.372 1.281 1.281 0 0 0 .376-.952v-3.193h.947v3.226a2.008 2.008 0 0 1 -.65 1.552z" transform="translate(-210.141 -63.905)"/><path d="m-210.508 1030.847v-5.292h2.221a2.435 2.435 0 0 1 1.731.568 1.9 1.9 0 0 1 .6 1.449 1.945 1.945 0 0 1 -.286 1.021 1.781 1.781 0 0 1 -.8.71l1.16 1.544h-1.16l-.916-1.274q-.238.016-.845.016h-.762v1.258zm.947-2.074h1.331a1.287 1.287 0 0 0 .939-.343 1.151 1.151 0 0 0 .351-.858 1.15 1.15 0 0 0 -.351-.857 1.275 1.275 0 0 0 -.931-.343h-1.339z" transform="translate(-234.071 -63.905)"/><path d="m-177.087 1030.847v-5.292h4.107v.817h-3.16v1.29h2.981v.808h-2.981v1.559h3.275v.817z" transform="translate(-257.881 -63.905)"/><path d="m-146.108 1029.968.368-.719a2.713 2.713 0 0 0 1.755.621 1.536 1.536 0 0 0 .8-.2.615.615 0 0 0 .343-.546.5.5 0 0 0 -.18-.387.956.956 0 0 0 -.373-.214l-.539-.151-.583-.164a3.38 3.38 0 0 1 -.522-.2 1.878 1.878 0 0 1 -.457-.29 1.289 1.289 0 0 1 -.29-.4 1.242 1.242 0 0 1 -.118-.547 1.269 1.269 0 0 1 .563-1.1 2.3 2.3 0 0 1 1.356-.4 3.269 3.269 0 0 1 1.878.572l-.368.727a2.761 2.761 0 0 0 -1.511-.441 1.639 1.639 0 0 0 -.408.053.913.913 0 0 0 -.375.2.476.476 0 0 0 -.172.372.469.469 0 0 0 .265.433 3.588 3.588 0 0 0 .845.286l.735.238a2.971 2.971 0 0 1 .62.285 1.274 1.274 0 0 1 .462.468 1.306 1.306 0 0 1 .159.65 1.341 1.341 0 0 1 -.637 1.192 2.683 2.683 0 0 1 -1.5.416 2.983 2.983 0 0 1 -2.116-.754z" transform="translate(-279.951 -63.703)"/></g><path d="m-520.477 938.1a17.963 17.963 0 0 0 -15.947 17.848 17.742 17.742 0 0 0 1.482 7.122l-1.24 2.14a19.941 19.941 0 0 1 -2.285-9.262 20.16 20.16 0 0 1 19.23-19.988zm2.09 37.854a20.058 20.058 0 0 0 16.607-8.773h-2.545a17.975 17.975 0 0 1 -14.062 6.737 17.98 17.98 0 0 1 -14.046-6.716h-2.546a20.059 20.059 0 0 0 16.592 8.755zm.689-40 1.231 2.124a17.932 17.932 0 0 1 16.117 17.872 17.744 17.744 0 0 1 -1.478 7.112l1.241 2.14a19.941 19.941 0 0 0 2.28-9.253 20.126 20.126 0 0 0 -19.393-19.992zm2.783 15.729v.006l2.6-4.475-2.587-4.463-3.45 5.968v-.007l-10.1 17.434h5.062l4.891-8.287zm-.954-10.406-2.587-4.464-16.993 29.333h5.067l5.585-9.494zm4.487 7.478-2.578 4.43 3.174 5.491 1.733 2.933h-9.839l-.271.464h-.02l-2.349 4.054h20.22z" fill="url(#a)"/></g></svg>